<svg width="64" height="64" viewBox="0 0 64 64" fill="none" xmlns="http://www.w3.org/2000/svg">
<circle cx="32" cy="32" r="30" transform="rotate(-2.9214 32 32)" fill="#343233"/>
<path d="M32.3961 37.6942L25.4338 25.4296L25.4215 29.6721C25.414 30.9045 25.4121 32.1308 25.4157 33.351C25.4304 34.5588 25.3956 35.7164 25.3113 36.8237C25.2264 37.9193 25.0557 38.943 24.7992 39.8948C24.5544 40.846 24.1628 41.6815 23.6246 42.4013C23.0975 43.1088 22.3873 43.6789 21.4942 44.1117C20.6127 44.5439 19.4932 44.7947 18.1356 44.8639C17.5387 44.8944 16.9628 44.8769 16.408 44.8113C15.8525 44.734 15.3597 44.6184 14.9294 44.4643C14.4991 44.3103 14.1551 44.1225 13.8974 43.901C13.6274 43.6683 13.4852 43.4116 13.4708 43.1307C13.4601 42.92 13.4786 42.7079 13.5264 42.4942C13.5735 42.2689 13.6512 42.0654 13.7592 41.8839C13.8667 41.6907 14.0055 41.5369 14.1757 41.4226C14.3336 41.2972 14.5179 41.2291 14.7285 41.2184C14.8573 41.2118 14.9717 41.2705 15.0719 41.3945C15.1838 41.5178 15.2975 41.6763 15.413 41.8699C15.5279 42.0518 15.6554 42.2506 15.7955 42.4664C15.9473 42.6816 16.1336 42.8833 16.3544 43.0715C16.5863 43.2474 16.8577 43.392 17.1686 43.5052C17.4794 43.6184 17.8631 43.6634 18.3195 43.6401C19.2207 43.5941 19.9678 43.4034 20.5608 43.0681C21.165 42.7204 21.6511 42.2439 22.0192 41.6384C22.3872 41.0329 22.6554 40.3093 22.8236 39.4676C22.9919 38.6259 23.1018 37.6757 23.1534 36.617C23.1704 36.0294 23.1885 35.4653 23.2078 34.9245C23.2266 34.3721 23.2456 33.8255 23.265 33.2847C23.2843 32.744 23.2975 32.1977 23.3045 31.6458C23.3227 31.0817 23.3393 30.4882 23.3545 29.8656C23.367 28.9614 23.3761 28.1044 23.3817 27.2944C23.3867 26.4728 23.383 25.7103 23.3706 25.0069C23.3698 24.3029 23.361 23.6697 23.344 23.1073C23.3388 22.5444 23.3315 22.0578 23.3223 21.6475C23.1025 21.2481 22.9102 20.9293 22.7455 20.6913C22.5802 20.4416 22.4124 20.2566 22.2419 20.1362C22.0709 20.0041 21.8847 19.9197 21.6834 19.8831C21.482 19.8464 21.2409 19.8353 20.96 19.8496C20.726 19.8615 20.4358 19.9233 20.0894 20.0348C19.7542 20.1341 19.4035 20.2752 19.0374 20.4581C18.6829 20.6405 18.3247 20.8641 17.9628 21.129C17.6119 21.3816 17.2982 21.6734 17.0218 22.0043C16.7564 22.3229 16.5397 22.6743 16.3715 23.0583C16.2151 23.4418 16.1479 23.85 16.17 24.2831C16.1891 24.6576 16.2512 24.9536 16.3561 25.1712C16.4728 25.3882 16.5985 25.5519 16.7332 25.6624C16.879 25.7606 17.0172 25.8239 17.1478 25.8525C17.2894 25.8687 17.3895 25.8753 17.448 25.8723C17.7406 25.8574 17.9781 25.7984 18.1606 25.6952C18.3425 25.5803 18.5068 25.4663 18.6536 25.3532C18.7997 25.2284 18.9348 25.1159 19.0588 25.0157C19.1938 24.9032 19.3491 24.8425 19.5247 24.8335C19.6651 24.8263 19.8132 24.854 19.9689 24.9165C20.1358 24.9666 20.2872 25.0586 20.4231 25.1925C20.5707 25.3258 20.6973 25.5071 20.8028 25.7363C20.9078 25.9539 20.9687 26.2266 20.9854 26.5543C21.0093 27.0224 20.9362 27.431 20.7663 27.7799C20.6081 28.1283 20.3886 28.427 20.108 28.676C19.8385 28.9127 19.5194 29.0991 19.1509 29.2352C18.7935 29.3591 18.4333 29.4303 18.0705 29.4488C17.5088 29.4775 16.9949 29.4098 16.5289 29.2458C16.074 29.0696 15.6799 28.8198 15.3466 28.4965C15.0133 28.1733 14.753 27.7876 14.5659 27.3395C14.3787 26.8914 14.272 26.4099 14.2458 25.895C14.1836 24.6778 14.4105 23.6043 14.9263 22.6744C15.4414 21.7329 16.1399 20.9345 17.0218 20.2794C17.9036 19.6242 18.9105 19.1211 20.0425 18.7699C21.1856 18.4065 22.3541 18.1944 23.5478 18.1334C24.5075 18.0845 25.3143 18.143 25.9681 18.3091C26.6214 18.4635 27.1729 18.6936 27.6226 18.9992C28.0718 19.293 28.4479 19.6493 28.7508 20.068C29.0538 20.4867 29.3346 20.93 29.5931 21.3979L34.7079 30.571C35.7922 28.1337 36.778 25.9537 37.6656 24.031C38.5642 22.0959 39.3984 20.393 40.1682 18.9222C40.938 17.4513 41.66 16.1941 42.3343 15.1506C43.0202 14.1065 43.6865 13.2511 44.333 12.5845C44.9907 11.9055 45.6456 11.4028 46.2978 11.0761C46.9617 10.7489 47.6564 10.5668 48.382 10.5297C49.0023 10.4981 49.5124 10.607 49.9124 10.8565C50.3117 11.0942 50.5248 11.4764 50.5517 12.0031C50.5756 12.4712 50.5192 12.8613 50.3826 13.1734C50.246 13.4854 50.0431 13.6483 49.7739 13.6621C49.5516 13.6734 49.3777 13.6002 49.2523 13.4423C49.1263 13.2727 48.9997 13.0914 48.8725 12.8984C48.757 12.7049 48.6132 12.5303 48.441 12.3748C48.2682 12.2076 48.0238 12.1321 47.7078 12.1482C47.5205 12.1578 47.295 12.2221 47.0312 12.3412C46.7674 12.4602 46.4945 12.6326 46.2127 12.8582C45.9426 13.0832 45.6751 13.3608 45.4104 13.6912C45.1456 14.0215 44.9187 14.4027 44.7295 14.8348C44.5403 15.2668 44.401 15.755 44.3114 16.2994C44.2218 16.8437 44.2169 17.4365 44.2966 18.0778C44.381 18.8128 44.4896 19.6755 44.6223 20.6662C44.7544 21.6451 44.8962 22.6998 45.0477 23.8302C45.2104 24.9484 45.3752 26.1075 45.542 27.3076C45.7206 28.5071 45.8982 29.689 46.075 30.8534C46.2518 32.0178 46.4203 33.1357 46.5805 34.207C46.7525 35.2778 46.9077 36.2496 47.0462 37.1226C47.184 37.9839 47.3094 38.7167 47.4224 39.3211C47.5348 39.9138 47.62 40.3202 47.6782 40.5402C47.7657 40.876 47.8734 41.1462 48.0012 41.3509C48.1284 41.5439 48.3441 41.6326 48.6484 41.6171C48.9644 41.601 49.2601 41.5331 49.5357 41.4134C49.8106 41.282 50.0562 41.1522 50.2726 41.0238L50.5866 41.659C50.3837 41.8219 50.1235 42.0112 49.806 42.2269C49.4995 42.4302 49.1401 42.6305 48.7278 42.8275C48.3271 43.024 47.8781 43.1936 47.3809 43.3363C46.8953 43.4784 46.3658 43.5641 45.7923 43.5934C44.9847 43.6346 44.3418 43.5676 43.8635 43.3926C43.3846 43.2058 43.009 42.9727 42.7366 42.6932C42.4753 42.4015 42.2894 42.0942 42.1791 41.7712C42.0799 41.436 42 41.135 41.9394 40.8682C41.8036 40.2767 41.6557 39.5626 41.4957 38.7259C41.3356 37.8893 41.1726 36.9941 41.0066 36.0403C40.8517 35.0743 40.6956 34.0849 40.5383 33.0721C40.3804 32.0475 40.2299 31.052 40.0867 30.0853C39.9546 29.1064 39.8313 28.1857 39.7169 27.3233C39.6025 26.4608 39.5054 25.7089 39.4258 25.0676C39.1039 25.659 38.8046 26.2316 38.5278 26.7855C38.2621 27.3271 38.0031 27.8859 37.7509 28.462C37.4981 29.0264 37.2409 29.6204 36.9794 30.2439C36.7178 30.8674 36.4414 31.5445 36.1502 32.2751C35.8706 33.0052 35.5595 33.8072 35.2169 34.6813C34.886 35.5548 34.5192 36.5298 34.1165 37.6064L32.3961 37.6942Z" fill="#FED136"/>
</svg>
