<svg width="221" height="42" viewBox="0 0 221 42" fill="none" xmlns="http://www.w3.org/2000/svg">
<path d="M20.1055 26.707L13.7773 14.1035L13.5488 18.3398C13.4785 19.5703 13.4141 20.7949 13.3555 22.0137C13.3086 23.2207 13.2148 24.375 13.0742 25.4766C12.9336 26.5664 12.7109 27.5801 12.4062 28.5176C12.1133 29.4551 11.6797 30.2695 11.1055 30.9609C10.543 31.6406 9.80469 32.1738 8.89062 32.5605C7.98828 32.9473 6.85742 33.1406 5.49805 33.1406C4.90039 33.1406 4.32617 33.0938 3.77539 33C3.22461 32.8945 2.73828 32.7539 2.31641 32.5781C1.89453 32.4023 1.56055 32.1973 1.31445 31.9629C1.05664 31.7168 0.927734 31.4531 0.927734 31.1719C0.927734 30.9609 0.957031 30.75 1.01562 30.5391C1.07422 30.3164 1.16211 30.1172 1.2793 29.9414C1.39648 29.7539 1.54297 29.6074 1.71875 29.502C1.88281 29.3848 2.07031 29.3262 2.28125 29.3262C2.41016 29.3262 2.52148 29.3906 2.61523 29.5195C2.7207 29.6484 2.82617 29.8125 2.93164 30.0117C3.03711 30.1992 3.1543 30.4043 3.2832 30.627C3.42383 30.8496 3.59961 31.0605 3.81055 31.2598C4.0332 31.4473 4.29688 31.6055 4.60156 31.7344C4.90625 31.8633 5.28711 31.9277 5.74414 31.9277C6.64648 31.9277 7.40234 31.7754 8.01172 31.4707C8.63281 31.1543 9.14258 30.7031 9.54102 30.1172C9.93945 29.5312 10.2441 28.8223 10.4551 27.9902C10.666 27.1582 10.8242 26.2148 10.9297 25.1602C10.9766 24.5742 11.0234 24.0117 11.0703 23.4727C11.1172 22.9219 11.1641 22.377 11.2109 21.8379C11.2578 21.2988 11.2988 20.7539 11.334 20.2031C11.3809 19.6406 11.4277 19.0488 11.4746 18.4277C11.5332 17.5254 11.5859 16.6699 11.6328 15.8613C11.6797 15.041 11.7148 14.2793 11.7383 13.5762C11.7734 12.873 11.7969 12.2402 11.8086 11.6777C11.832 11.1152 11.8496 10.6289 11.8613 10.2188C11.6621 9.80859 11.4863 9.48047 11.334 9.23438C11.1816 8.97656 11.0234 8.7832 10.8594 8.6543C10.6953 8.51367 10.5137 8.41992 10.3145 8.37305C10.1152 8.32617 9.875 8.30273 9.59375 8.30273C9.35938 8.30273 9.06641 8.34961 8.71484 8.44336C8.375 8.52539 8.01758 8.64844 7.64258 8.8125C7.2793 8.97656 6.91016 9.18164 6.53516 9.42773C6.17188 9.66211 5.84375 9.9375 5.55078 10.2539C5.26953 10.5586 5.03516 10.8984 4.84766 11.2734C4.67188 11.6484 4.58398 12.0527 4.58398 12.4863C4.58398 12.8613 4.63086 13.1602 4.72461 13.3828C4.83008 13.6055 4.94727 13.7754 5.07617 13.8926C5.2168 13.998 5.35156 14.0684 5.48047 14.1035C5.62109 14.127 5.7207 14.1387 5.7793 14.1387C6.07227 14.1387 6.3125 14.0918 6.5 13.998C6.6875 13.8926 6.85742 13.7871 7.00977 13.6816C7.16211 13.5645 7.30273 13.459 7.43164 13.3652C7.57227 13.2598 7.73047 13.207 7.90625 13.207C8.04688 13.207 8.19336 13.2422 8.3457 13.3125C8.50977 13.3711 8.65625 13.4707 8.78516 13.6113C8.92578 13.752 9.04297 13.9395 9.13672 14.1738C9.23047 14.3965 9.27734 14.6719 9.27734 15C9.27734 15.4688 9.18359 15.873 8.99609 16.2129C8.82031 16.5527 8.58594 16.8398 8.29297 17.0742C8.01172 17.2969 7.68359 17.4668 7.30859 17.584C6.94531 17.6895 6.58203 17.7422 6.21875 17.7422C5.65625 17.7422 5.14648 17.6484 4.68945 17.4609C4.24414 17.2617 3.86328 16.9922 3.54688 16.6523C3.23047 16.3125 2.99023 15.9141 2.82617 15.457C2.66211 15 2.58008 14.5137 2.58008 13.998C2.58008 12.7793 2.86133 11.7187 3.42383 10.8164C3.98633 9.90234 4.72461 9.14063 5.63867 8.53125C6.55273 7.92187 7.58398 7.4707 8.73242 7.17773C9.89258 6.87305 11.0703 6.7207 12.2656 6.7207C13.2266 6.7207 14.0293 6.82031 14.6738 7.01953C15.3184 7.20703 15.8574 7.46484 16.291 7.79297C16.7246 8.10938 17.082 8.48437 17.3633 8.91797C17.6445 9.35156 17.9023 9.80859 18.1367 10.2891L22.7773 19.7109C23.9844 17.332 25.0801 15.2051 26.0645 13.3301C27.0605 11.4434 27.9805 9.78516 28.8242 8.35547C29.668 6.92578 30.4531 5.70703 31.1797 4.69922C31.918 3.69141 32.627 2.87109 33.3066 2.23828C33.998 1.59375 34.6777 1.125 35.3457 0.832031C36.0254 0.539062 36.7285 0.392578 37.4551 0.392578C38.0762 0.392578 38.5801 0.527344 38.9668 0.796875C39.3535 1.05469 39.5469 1.44727 39.5469 1.97461C39.5469 2.44336 39.4707 2.83008 39.3184 3.13477C39.166 3.43945 38.9551 3.5918 38.6855 3.5918C38.4629 3.5918 38.293 3.50977 38.1758 3.3457C38.0586 3.16992 37.9414 2.98242 37.8242 2.7832C37.7188 2.58398 37.584 2.40234 37.4199 2.23828C37.2559 2.0625 37.0156 1.97461 36.6992 1.97461C36.5117 1.97461 36.2832 2.02734 36.0137 2.13281C35.7441 2.23828 35.4629 2.39648 35.1699 2.60742C34.8887 2.81836 34.6074 3.08203 34.3262 3.39844C34.0449 3.71484 33.7988 4.08398 33.5879 4.50586C33.377 4.92773 33.2129 5.4082 33.0957 5.94727C32.9785 6.48633 32.9434 7.07812 32.9902 7.72266C33.0371 8.46094 33.1016 9.32812 33.1836 10.3242C33.2656 11.3086 33.3535 12.3691 33.4473 13.5059C33.5527 14.6309 33.6582 15.7969 33.7637 17.0039C33.8809 18.2109 33.998 19.4004 34.1152 20.5723C34.2324 21.7441 34.3438 22.8691 34.4492 23.9473C34.5664 25.0254 34.6719 26.0039 34.7656 26.8828C34.8594 27.75 34.9473 28.4883 35.0293 29.0977C35.1113 29.6953 35.1758 30.1055 35.2227 30.3281C35.293 30.668 35.3867 30.9434 35.5039 31.1543C35.6211 31.3535 35.832 31.4531 36.1367 31.4531C36.4531 31.4531 36.752 31.4004 37.0332 31.2949C37.3145 31.1777 37.5664 31.0605 37.7891 30.9434L38.0703 31.5938C37.8594 31.7461 37.5898 31.9219 37.2617 32.1211C36.9453 32.3086 36.5762 32.4902 36.1543 32.666C35.7441 32.8418 35.2871 32.9883 34.7832 33.1055C34.291 33.2227 33.7578 33.2812 33.1836 33.2812C32.375 33.2812 31.7363 33.1816 31.2676 32.9824C30.7988 32.7715 30.4355 32.5195 30.1777 32.2266C29.9316 31.9219 29.7617 31.6055 29.668 31.2773C29.5859 30.9375 29.5215 30.6328 29.4746 30.3633C29.3691 29.7656 29.2578 29.0449 29.1406 28.2012C29.0234 27.3574 28.9062 26.4551 28.7891 25.4941C28.6836 24.5215 28.5781 23.5254 28.4727 22.5059C28.3672 21.4746 28.2676 20.4727 28.1738 19.5C28.0918 18.5156 28.0156 17.5898 27.9453 16.7227C27.875 15.8555 27.8164 15.0996 27.7695 14.4551C27.418 15.0293 27.0898 15.5859 26.7852 16.125C26.4922 16.6523 26.2051 17.1973 25.9238 17.7598C25.6426 18.3105 25.3555 18.8906 25.0625 19.5C24.7695 20.1094 24.459 20.7715 24.1309 21.4863C23.8145 22.2012 23.4629 22.9863 23.0762 23.8418C22.7012 24.6973 22.2852 25.6523 21.8281 26.707H20.1055ZM48.2129 23.8945C48.2129 23.6016 48.1191 23.3789 47.9316 23.2266C47.7441 23.0742 47.5039 22.998 47.2109 22.998C46.8008 22.998 46.4082 23.0918 46.0332 23.2793C45.6699 23.4668 45.3477 23.7422 45.0664 24.1055C44.7852 24.4688 44.5625 24.9199 44.3984 25.459C44.2344 25.9863 44.1523 26.6016 44.1523 27.3047C44.1523 27.9844 44.1992 28.5469 44.293 28.9922C44.3984 29.4375 44.5332 29.7949 44.6973 30.0645C44.873 30.3223 45.0723 30.5039 45.2949 30.6094C45.5176 30.7148 45.752 30.7676 45.998 30.7676C46.3027 30.7676 46.5898 30.6914 46.8594 30.5391C47.1289 30.375 47.3633 30.1699 47.5625 29.9238C47.7617 29.6777 47.9199 29.4023 48.0371 29.0977C48.1543 28.793 48.2129 28.4883 48.2129 28.1836V23.8945ZM45.418 16.1953C45.0195 16.1953 44.6504 16.2422 44.3105 16.3359C43.9707 16.4297 43.6777 16.5469 43.4316 16.6875C43.1855 16.8281 42.9922 16.9863 42.8516 17.1621C42.7109 17.3262 42.6406 17.4844 42.6406 17.6367C42.6406 17.8125 42.7285 17.9414 42.9043 18.0234C43.0918 18.0938 43.2969 18.1816 43.5195 18.2871C43.7422 18.3809 43.9414 18.5215 44.1172 18.709C44.3047 18.8848 44.3984 19.1602 44.3984 19.5352C44.3984 19.7812 44.3457 20.0098 44.2402 20.2207C44.1465 20.4199 44.0117 20.6016 43.8359 20.7656C43.6719 20.918 43.4727 21.041 43.2383 21.1348C43.0156 21.2168 42.7812 21.2578 42.5352 21.2578C41.8789 21.2578 41.3457 21.0352 40.9355 20.5898C40.5371 20.1445 40.3379 19.5527 40.3379 18.8145C40.3379 18.0996 40.5254 17.4902 40.9004 16.9863C41.2754 16.4707 41.7617 16.0488 42.3594 15.7207C42.9688 15.3926 43.6543 15.1523 44.416 15C45.1777 14.8359 45.9395 14.7539 46.7012 14.7539C47.6152 14.7539 48.4883 14.8535 49.3203 15.0527C50.1523 15.252 50.8848 15.5684 51.5176 16.002C52.1621 16.4355 52.6719 16.9863 53.0469 17.6543C53.4336 18.3223 53.627 19.1309 53.627 20.0801V30.0117C53.627 30.1172 53.6328 30.2344 53.6445 30.3633C53.6562 30.4922 53.6855 30.6094 53.7324 30.7148C53.7793 30.8203 53.8496 30.9082 53.9434 30.9785C54.0371 31.0488 54.1719 31.084 54.3477 31.084C54.5586 31.084 54.752 31.0078 54.9277 30.8555C55.1152 30.6914 55.2793 30.5273 55.4199 30.3633L55.8594 30.7324C55.6836 30.9785 55.4727 31.248 55.2266 31.541C54.9805 31.834 54.6816 32.1094 54.3301 32.3672C53.9785 32.625 53.5684 32.8418 53.0996 33.0176C52.6309 33.1934 52.0977 33.2812 51.5 33.2812C50.7617 33.2812 50.1055 33.0645 49.5312 32.6309C48.957 32.1855 48.582 31.5059 48.4062 30.5918C48.0312 31.0957 47.6387 31.5176 47.2285 31.8574C46.8301 32.1973 46.4199 32.4727 45.998 32.6836C45.5762 32.8945 45.1484 33.0469 44.7148 33.1406C44.293 33.2344 43.8652 33.2812 43.4316 33.2812C42.8691 33.2812 42.3242 33.1934 41.7969 33.0176C41.2695 32.8418 40.7949 32.5664 40.373 32.1914C39.9629 31.8047 39.6289 31.3066 39.3711 30.6973C39.125 30.0879 39.002 29.3438 39.002 28.4648C39.002 27.3984 39.2129 26.5254 39.6348 25.8457C40.0566 25.166 40.6074 24.5977 41.2871 24.1406C41.9785 23.6719 42.7578 23.2734 43.625 22.9453C44.5039 22.6172 45.4004 22.2715 46.3145 21.9082C46.9941 21.6387 47.4863 21.2402 47.791 20.7129C48.1074 20.1738 48.2656 19.623 48.2656 19.0605C48.2656 18.1934 48.0078 17.502 47.4922 16.9863C46.9883 16.459 46.2969 16.1953 45.418 16.1953ZM64.9121 17.707C65.0293 17.5547 65.1289 17.3906 65.2109 17.2148C65.3047 17.0391 65.3516 16.875 65.3516 16.7227C65.3516 16.5 65.1758 16.3418 64.8242 16.248C64.4727 16.1543 63.8223 16.1074 62.873 16.1074C62.2871 16.1074 61.8008 16.1777 61.4141 16.3184C61.0273 16.459 60.7051 16.6348 60.4473 16.8457C60.2012 17.0449 59.9961 17.2676 59.832 17.5137C59.6797 17.7598 59.5449 17.9883 59.4277 18.1992C59.3105 18.3984 59.1934 18.5684 59.0762 18.709C58.9707 18.8496 58.8301 18.9199 58.6543 18.9199C58.4551 18.9199 58.2793 18.8555 58.127 18.7266C57.9863 18.5977 57.8691 18.4395 57.7754 18.252C57.6816 18.0527 57.6113 17.8418 57.5645 17.6191C57.5176 17.3848 57.4941 17.1621 57.4941 16.9512C57.4941 16.6348 57.6289 16.3418 57.8984 16.0723C58.168 15.8027 58.5605 15.5742 59.0762 15.3867C59.5918 15.1875 60.2188 15.0352 60.957 14.9297C61.707 14.8125 62.5625 14.7539 63.5234 14.7539C65.082 14.7539 66.3477 14.8184 67.3203 14.9473C68.3047 15.0762 69.0723 15.252 69.623 15.4746C70.1738 15.6855 70.5488 15.9434 70.748 16.248C70.9473 16.5527 71.0469 16.8809 71.0469 17.2324C71.0469 17.4199 71 17.6309 70.9062 17.8652C70.8242 18.0879 70.7188 18.3047 70.5898 18.5156C70.4727 18.7266 70.3496 18.9258 70.2207 19.1133C70.1035 19.2891 70.0156 19.418 69.957 19.5L62.6445 30.6973C62.6094 30.7559 62.5508 30.8496 62.4688 30.9785C62.3984 31.0957 62.3633 31.2305 62.3633 31.3828C62.3633 31.4766 62.3926 31.5586 62.4512 31.6289C62.5215 31.6992 62.6445 31.7578 62.8203 31.8047C63.0078 31.8516 63.2715 31.8867 63.6113 31.9102C63.9512 31.9219 64.3965 31.9277 64.9473 31.9277C65.6504 31.9277 66.2305 31.8516 66.6875 31.6992C67.1562 31.5469 67.5371 31.3535 67.8301 31.1191C68.123 30.8848 68.3574 30.6387 68.5332 30.3809C68.709 30.1113 68.8613 29.8594 68.9902 29.625C69.1191 29.3906 69.2422 29.1973 69.3594 29.0449C69.4883 28.8926 69.6523 28.8164 69.8516 28.8164C70.0508 28.8164 70.2266 28.8926 70.3789 29.0449C70.5312 29.1855 70.6602 29.3672 70.7656 29.5898C70.8711 29.8125 70.9473 30.0527 70.9941 30.3105C71.0527 30.5684 71.082 30.8027 71.082 31.0137C71.082 31.3301 70.9414 31.6289 70.6602 31.9102C70.3789 32.1797 69.9512 32.4199 69.377 32.6309C68.8027 32.8301 68.0703 32.9883 67.1797 33.1055C66.3008 33.2227 65.2578 33.2812 64.0508 33.2812C62.75 33.2812 61.6426 33.2285 60.7285 33.123C59.8145 33.0176 59.0703 32.8652 58.4961 32.666C57.9219 32.4551 57.5059 32.1914 57.248 31.875C56.9902 31.5586 56.8613 31.1895 56.8613 30.7676C56.8613 30.4277 56.9375 30.0938 57.0898 29.7656C57.2539 29.4258 57.4883 29.0391 57.793 28.6055L64.9121 17.707ZM79.3789 18.0938C79.8125 17.4727 80.3047 16.916 80.8555 16.4238C81.0781 16.2129 81.3242 16.0078 81.5938 15.8086C81.875 15.6094 82.168 15.4336 82.4727 15.2812C82.7891 15.1172 83.1172 14.9883 83.457 14.8945C83.8086 14.8008 84.166 14.7539 84.5293 14.7539C85.3145 14.7539 86.0176 14.9062 86.6387 15.2109C87.2598 15.5156 87.7812 16.0254 88.2031 16.7402C88.625 17.4551 88.9473 18.4043 89.1699 19.5879C89.3926 20.7598 89.5039 22.2188 89.5039 23.9648C89.5039 25.6641 89.3516 27.1406 89.0469 28.3945C88.7422 29.6484 88.3438 30.7148 87.8516 31.5938C87.3594 32.4727 86.8027 33.1875 86.1816 33.7383C85.5605 34.3008 84.9336 34.7402 84.3008 35.0566C83.668 35.373 83.0586 35.5898 82.4727 35.707C81.8867 35.8359 81.3828 35.9062 80.9609 35.918L80.7852 35.1973C81.3125 35.0684 81.7812 34.8281 82.1914 34.4766C82.6016 34.125 82.9473 33.5508 83.2285 32.7539C83.5098 31.9453 83.7207 30.8613 83.8613 29.502C84.0137 28.1426 84.0898 26.3906 84.0898 24.2461C84.0898 22.7695 84.0195 21.5918 83.8789 20.7129C83.75 19.8223 83.5742 19.1484 83.3516 18.6914C83.1406 18.2227 82.8945 17.918 82.6133 17.7773C82.3438 17.625 82.0684 17.5488 81.7871 17.5488C81.4473 17.5488 81.1484 17.6426 80.8906 17.8301C80.6328 18.0059 80.4043 18.2109 80.2051 18.4453C80.0176 18.6797 79.8535 18.9141 79.7129 19.1484C79.584 19.3828 79.4727 19.5586 79.3789 19.6758V31.418C79.3789 31.5703 79.3555 31.7578 79.3086 31.9805C79.2617 32.1914 79.1445 32.3965 78.957 32.5957C78.7812 32.7832 78.5117 32.9414 78.1484 33.0703C77.7969 33.2109 77.3105 33.2812 76.6895 33.2812C76.0684 33.2812 75.5762 33.2051 75.2129 33.0527C74.8496 32.9121 74.5742 32.7422 74.3867 32.543C74.2109 32.3438 74.0996 32.1387 74.0527 31.9277C74.0059 31.7168 73.9824 31.5469 73.9824 31.418V8.74219C73.9824 8.40234 73.9004 8.10938 73.7363 7.86328C73.584 7.60547 73.3203 7.47656 72.9453 7.47656C72.7461 7.47656 72.5703 7.51172 72.418 7.58203C72.2773 7.64062 72.125 7.73438 71.9609 7.86328L71.6094 7.44141C71.8789 7.21875 72.1777 7.00195 72.5059 6.79102C72.834 6.56836 73.1914 6.375 73.5781 6.21094C73.9766 6.04688 74.3984 5.91211 74.8438 5.80664C75.2891 5.70117 75.7578 5.64844 76.25 5.64844C77.0117 5.64844 77.6035 5.75391 78.0254 5.96484C78.4473 6.16406 78.7578 6.41602 78.957 6.7207C79.1562 7.01367 79.2734 7.33008 79.3086 7.66992C79.3555 7.99805 79.3789 8.29102 79.3789 8.54883V18.0938ZM101.053 23.8945C101.053 23.6016 100.959 23.3789 100.771 23.2266C100.584 23.0742 100.344 22.998 100.051 22.998C99.6406 22.998 99.248 23.0918 98.873 23.2793C98.5098 23.4668 98.1875 23.7422 97.9062 24.1055C97.625 24.4688 97.4023 24.9199 97.2383 25.459C97.0742 25.9863 96.9922 26.6016 96.9922 27.3047C96.9922 27.9844 97.0391 28.5469 97.1328 28.9922C97.2383 29.4375 97.373 29.7949 97.5371 30.0645C97.7129 30.3223 97.9121 30.5039 98.1348 30.6094C98.3574 30.7148 98.5918 30.7676 98.8379 30.7676C99.1426 30.7676 99.4297 30.6914 99.6992 30.5391C99.9688 30.375 100.203 30.1699 100.402 29.9238C100.602 29.6777 100.76 29.4023 100.877 29.0977C100.994 28.793 101.053 28.4883 101.053 28.1836V23.8945ZM98.2578 16.1953C97.8594 16.1953 97.4902 16.2422 97.1504 16.3359C96.8105 16.4297 96.5176 16.5469 96.2715 16.6875C96.0254 16.8281 95.832 16.9863 95.6914 17.1621C95.5508 17.3262 95.4805 17.4844 95.4805 17.6367C95.4805 17.8125 95.5684 17.9414 95.7441 18.0234C95.9316 18.0938 96.1367 18.1816 96.3594 18.2871C96.582 18.3809 96.7812 18.5215 96.957 18.709C97.1445 18.8848 97.2383 19.1602 97.2383 19.5352C97.2383 19.7812 97.1855 20.0098 97.0801 20.2207C96.9863 20.4199 96.8516 20.6016 96.6758 20.7656C96.5117 20.918 96.3125 21.041 96.0781 21.1348C95.8555 21.2168 95.6211 21.2578 95.375 21.2578C94.7188 21.2578 94.1855 21.0352 93.7754 20.5898C93.377 20.1445 93.1777 19.5527 93.1777 18.8145C93.1777 18.0996 93.3652 17.4902 93.7402 16.9863C94.1152 16.4707 94.6016 16.0488 95.1992 15.7207C95.8086 15.3926 96.4941 15.1523 97.2559 15C98.0176 14.8359 98.7793 14.7539 99.541 14.7539C100.455 14.7539 101.328 14.8535 102.16 15.0527C102.992 15.252 103.725 15.5684 104.357 16.002C105.002 16.4355 105.512 16.9863 105.887 17.6543C106.273 18.3223 106.467 19.1309 106.467 20.0801V30.0117C106.467 30.1172 106.473 30.2344 106.484 30.3633C106.496 30.4922 106.525 30.6094 106.572 30.7148C106.619 30.8203 106.689 30.9082 106.783 30.9785C106.877 31.0488 107.012 31.084 107.188 31.084C107.398 31.084 107.592 31.0078 107.768 30.8555C107.955 30.6914 108.119 30.5273 108.26 30.3633L108.699 30.7324C108.523 30.9785 108.312 31.248 108.066 31.541C107.82 31.834 107.521 32.1094 107.17 32.3672C106.818 32.625 106.408 32.8418 105.939 33.0176C105.471 33.1934 104.938 33.2812 104.34 33.2812C103.602 33.2812 102.945 33.0645 102.371 32.6309C101.797 32.1855 101.422 31.5059 101.246 30.5918C100.871 31.0957 100.479 31.5176 100.068 31.8574C99.6699 32.1973 99.2598 32.4727 98.8379 32.6836C98.416 32.8945 97.9883 33.0469 97.5547 33.1406C97.1328 33.2344 96.7051 33.2812 96.2715 33.2812C95.709 33.2812 95.1641 33.1934 94.6367 33.0176C94.1094 32.8418 93.6348 32.5664 93.2129 32.1914C92.8027 31.8047 92.4688 31.3066 92.2109 30.6973C91.9648 30.0879 91.8418 29.3438 91.8418 28.4648C91.8418 27.3984 92.0527 26.5254 92.4746 25.8457C92.8965 25.166 93.4473 24.5977 94.127 24.1406C94.8184 23.6719 95.5977 23.2734 96.4648 22.9453C97.3438 22.6172 98.2402 22.2715 99.1543 21.9082C99.834 21.6387 100.326 21.2402 100.631 20.7129C100.947 20.1738 101.105 19.623 101.105 19.0605C101.105 18.1934 100.848 17.502 100.332 16.9863C99.8281 16.459 99.1367 16.1953 98.2578 16.1953ZM116.68 18.4629C117.125 17.7832 117.6 17.168 118.104 16.6172C118.314 16.3828 118.543 16.1543 118.789 15.9316C119.035 15.709 119.287 15.5098 119.545 15.334C119.814 15.1582 120.09 15.0176 120.371 14.9121C120.652 14.8066 120.934 14.7539 121.215 14.7539C121.812 14.7539 122.281 14.9355 122.621 15.2988C122.961 15.6504 123.131 16.1484 123.131 16.793C123.131 17.1914 123.096 17.5781 123.025 17.9531C122.967 18.3164 122.844 18.7617 122.656 19.2891H122.164C122.094 18.9258 121.93 18.627 121.672 18.3926C121.414 18.1465 121.039 18.0234 120.547 18.0234C120.184 18.0234 119.826 18.0938 119.475 18.2344C119.123 18.3633 118.777 18.5273 118.438 18.7266C118.109 18.9258 117.793 19.1426 117.488 19.377C117.195 19.6113 116.926 19.834 116.68 20.0449V31.4531C116.68 31.6055 116.656 31.7871 116.609 31.998C116.562 32.209 116.445 32.4082 116.258 32.5957C116.082 32.7832 115.812 32.9414 115.449 33.0703C115.098 33.2109 114.611 33.2812 113.99 33.2812C113.369 33.2812 112.877 33.2051 112.514 33.0527C112.162 32.9121 111.893 32.7422 111.705 32.543C111.518 32.3438 111.4 32.1387 111.354 31.9277C111.307 31.7168 111.283 31.5469 111.283 31.418V17.8477C111.283 17.5078 111.201 17.2148 111.037 16.9688C110.885 16.7109 110.621 16.582 110.246 16.582C110.047 16.582 109.877 16.6172 109.736 16.6875C109.596 16.7578 109.443 16.8574 109.279 16.9863L108.91 16.5469C109.18 16.3242 109.479 16.1074 109.807 15.8965C110.146 15.6738 110.51 15.4805 110.896 15.3164C111.283 15.1523 111.699 15.0176 112.145 14.9121C112.59 14.8066 113.059 14.7539 113.551 14.7539C114.055 14.7539 114.482 14.8242 114.834 14.9648C115.197 15.0938 115.49 15.2695 115.713 15.4922C115.947 15.7031 116.129 15.9434 116.258 16.2129C116.387 16.4824 116.48 16.7578 116.539 17.0391C116.609 17.3086 116.65 17.5723 116.662 17.8301C116.674 18.0762 116.68 18.2871 116.68 18.4629ZM130.988 18.4629C131.434 17.7832 131.908 17.168 132.412 16.6172C132.623 16.3828 132.852 16.1543 133.098 15.9316C133.344 15.709 133.596 15.5098 133.854 15.334C134.123 15.1582 134.398 15.0176 134.68 14.9121C134.961 14.8066 135.242 14.7539 135.523 14.7539C136.121 14.7539 136.59 14.9355 136.93 15.2988C137.27 15.6504 137.439 16.1484 137.439 16.793C137.439 17.1914 137.404 17.5781 137.334 17.9531C137.275 18.3164 137.152 18.7617 136.965 19.2891H136.473C136.402 18.9258 136.238 18.627 135.98 18.3926C135.723 18.1465 135.348 18.0234 134.855 18.0234C134.492 18.0234 134.135 18.0938 133.783 18.2344C133.432 18.3633 133.086 18.5273 132.746 18.7266C132.418 18.9258 132.102 19.1426 131.797 19.377C131.504 19.6113 131.234 19.834 130.988 20.0449V31.4531C130.988 31.6055 130.965 31.7871 130.918 31.998C130.871 32.209 130.754 32.4082 130.566 32.5957C130.391 32.7832 130.121 32.9414 129.758 33.0703C129.406 33.2109 128.92 33.2812 128.299 33.2812C127.678 33.2812 127.186 33.2051 126.822 33.0527C126.471 32.9121 126.201 32.7422 126.014 32.543C125.826 32.3438 125.709 32.1387 125.662 31.9277C125.615 31.7168 125.592 31.5469 125.592 31.418V17.8477C125.592 17.5078 125.51 17.2148 125.346 16.9688C125.193 16.7109 124.93 16.582 124.555 16.582C124.355 16.582 124.186 16.6172 124.045 16.6875C123.904 16.7578 123.752 16.8574 123.588 16.9863L123.219 16.5469C123.488 16.3242 123.787 16.1074 124.115 15.8965C124.455 15.6738 124.818 15.4805 125.205 15.3164C125.592 15.1523 126.008 15.0176 126.453 14.9121C126.898 14.8066 127.367 14.7539 127.859 14.7539C128.363 14.7539 128.791 14.8242 129.143 14.9648C129.506 15.0938 129.799 15.2695 130.021 15.4922C130.256 15.7031 130.438 15.9434 130.566 16.2129C130.695 16.4824 130.789 16.7578 130.848 17.0391C130.918 17.3086 130.959 17.5723 130.971 17.8301C130.982 18.0762 130.988 18.2871 130.988 18.4629ZM147.248 23.8945C147.248 23.6016 147.154 23.3789 146.967 23.2266C146.779 23.0742 146.539 22.998 146.246 22.998C145.836 22.998 145.443 23.0918 145.068 23.2793C144.705 23.4668 144.383 23.7422 144.102 24.1055C143.82 24.4688 143.598 24.9199 143.434 25.459C143.27 25.9863 143.188 26.6016 143.188 27.3047C143.188 27.9844 143.234 28.5469 143.328 28.9922C143.434 29.4375 143.568 29.7949 143.732 30.0645C143.908 30.3223 144.107 30.5039 144.33 30.6094C144.553 30.7148 144.787 30.7676 145.033 30.7676C145.338 30.7676 145.625 30.6914 145.895 30.5391C146.164 30.375 146.398 30.1699 146.598 29.9238C146.797 29.6777 146.955 29.4023 147.072 29.0977C147.189 28.793 147.248 28.4883 147.248 28.1836V23.8945ZM144.453 16.1953C144.055 16.1953 143.686 16.2422 143.346 16.3359C143.006 16.4297 142.713 16.5469 142.467 16.6875C142.221 16.8281 142.027 16.9863 141.887 17.1621C141.746 17.3262 141.676 17.4844 141.676 17.6367C141.676 17.8125 141.764 17.9414 141.939 18.0234C142.127 18.0938 142.332 18.1816 142.555 18.2871C142.777 18.3809 142.977 18.5215 143.152 18.709C143.34 18.8848 143.434 19.1602 143.434 19.5352C143.434 19.7812 143.381 20.0098 143.275 20.2207C143.182 20.4199 143.047 20.6016 142.871 20.7656C142.707 20.918 142.508 21.041 142.273 21.1348C142.051 21.2168 141.816 21.2578 141.57 21.2578C140.914 21.2578 140.381 21.0352 139.971 20.5898C139.572 20.1445 139.373 19.5527 139.373 18.8145C139.373 18.0996 139.561 17.4902 139.936 16.9863C140.311 16.4707 140.797 16.0488 141.395 15.7207C142.004 15.3926 142.689 15.1523 143.451 15C144.213 14.8359 144.975 14.7539 145.736 14.7539C146.65 14.7539 147.523 14.8535 148.355 15.0527C149.188 15.252 149.92 15.5684 150.553 16.002C151.197 16.4355 151.707 16.9863 152.082 17.6543C152.469 18.3223 152.662 19.1309 152.662 20.0801V30.0117C152.662 30.1172 152.668 30.2344 152.68 30.3633C152.691 30.4922 152.721 30.6094 152.768 30.7148C152.814 30.8203 152.885 30.9082 152.979 30.9785C153.072 31.0488 153.207 31.084 153.383 31.084C153.594 31.084 153.787 31.0078 153.963 30.8555C154.15 30.6914 154.314 30.5273 154.455 30.3633L154.895 30.7324C154.719 30.9785 154.508 31.248 154.262 31.541C154.016 31.834 153.717 32.1094 153.365 32.3672C153.014 32.625 152.604 32.8418 152.135 33.0176C151.666 33.1934 151.133 33.2812 150.535 33.2812C149.797 33.2812 149.141 33.0645 148.566 32.6309C147.992 32.1855 147.617 31.5059 147.441 30.5918C147.066 31.0957 146.674 31.5176 146.264 31.8574C145.865 32.1973 145.455 32.4727 145.033 32.6836C144.611 32.8945 144.184 33.0469 143.75 33.1406C143.328 33.2344 142.9 33.2812 142.467 33.2812C141.904 33.2812 141.359 33.1934 140.832 33.0176C140.305 32.8418 139.83 32.5664 139.408 32.1914C138.998 31.8047 138.664 31.3066 138.406 30.6973C138.16 30.0879 138.037 29.3438 138.037 28.4648C138.037 27.3984 138.248 26.5254 138.67 25.8457C139.092 25.166 139.643 24.5977 140.322 24.1406C141.014 23.6719 141.793 23.2734 142.66 22.9453C143.539 22.6172 144.436 22.2715 145.35 21.9082C146.029 21.6387 146.521 21.2402 146.826 20.7129C147.143 20.1738 147.301 19.623 147.301 19.0605C147.301 18.1934 147.043 17.502 146.527 16.9863C146.023 16.459 145.332 16.1953 144.453 16.1953ZM162.91 16.1602C162.641 16.1602 162.383 16.1953 162.137 16.2656C161.902 16.3359 161.691 16.4531 161.504 16.6172C161.316 16.7695 161.17 16.9688 161.064 17.2148C160.959 17.4492 160.906 17.7305 160.906 18.0586C160.906 18.5156 161.07 18.9727 161.398 19.4297C161.738 19.875 162.154 20.3438 162.646 20.8359C163.15 21.3164 163.689 21.8203 164.264 22.3477C164.85 22.8633 165.389 23.4141 165.881 24C166.385 24.5742 166.801 25.1895 167.129 25.8457C167.469 26.502 167.639 27.2051 167.639 27.9551C167.639 28.7988 167.492 29.5488 167.199 30.2051C166.918 30.8613 166.508 31.418 165.969 31.875C165.441 32.332 164.797 32.6836 164.035 32.9297C163.285 33.1641 162.447 33.2812 161.521 33.2812C160.713 33.2812 159.98 33.1699 159.324 32.9473C158.668 32.7129 158.082 32.4316 157.566 32.1035C157.062 31.7637 156.629 31.4062 156.266 31.0312C155.902 30.6562 155.621 30.3164 155.422 30.0117L156.037 29.5723C156.189 29.748 156.383 29.9414 156.617 30.1523C156.852 30.3516 157.109 30.5391 157.391 30.7148C157.684 30.8906 157.994 31.0371 158.322 31.1543C158.65 31.2598 158.984 31.3125 159.324 31.3125C160.168 31.3125 160.859 31.1133 161.398 30.7148C161.938 30.3047 162.207 29.7012 162.207 28.9043C162.207 28.459 162.061 28.002 161.768 27.5332C161.475 27.0527 161.105 26.5605 160.66 26.0566C160.215 25.5527 159.734 25.0312 159.219 24.4922C158.703 23.9531 158.223 23.3965 157.777 22.8223C157.332 22.248 156.963 21.6562 156.67 21.0469C156.377 20.4375 156.23 19.8047 156.23 19.1484C156.23 18.4102 156.377 17.7656 156.67 17.2148C156.975 16.6641 157.373 16.207 157.865 15.8438C158.369 15.4805 158.938 15.2109 159.57 15.0352C160.215 14.8477 160.877 14.7539 161.557 14.7539C162.342 14.7539 163.057 14.8242 163.701 14.9648C164.346 15.1055 164.896 15.3223 165.354 15.6152C165.822 15.8965 166.18 16.2539 166.426 16.6875C166.684 17.1211 166.812 17.625 166.812 18.1992C166.812 18.6445 166.666 19.0312 166.373 19.3594C166.08 19.6875 165.67 19.8516 165.143 19.8516C164.639 19.8516 164.252 19.7461 163.982 19.5352C163.725 19.3125 163.596 19.0137 163.596 18.6387C163.596 18.3926 163.654 18.1992 163.771 18.0586C163.9 17.918 164.041 17.8066 164.193 17.7246C164.346 17.6309 164.48 17.5547 164.598 17.4961C164.727 17.4258 164.791 17.3379 164.791 17.2324C164.791 16.9043 164.615 16.6465 164.264 16.459C163.912 16.2598 163.461 16.1602 162.91 16.1602ZM184.918 17.5137C184.918 19.6582 184.707 21.7324 184.285 23.7363C183.875 25.7285 183.301 27.6035 182.562 29.3613C181.836 31.1074 180.969 32.7012 179.961 34.1426C178.953 35.5957 177.857 36.8379 176.674 37.8691C175.49 38.9004 174.236 39.7031 172.912 40.2773C171.6 40.8516 170.27 41.1387 168.922 41.1387C167.891 41.1387 167.094 40.9629 166.531 40.6113C165.969 40.2715 165.688 39.8086 165.688 39.2227C165.688 39 165.723 38.7832 165.793 38.5723C165.863 38.3613 165.957 38.1738 166.074 38.0098C166.191 37.8457 166.332 37.7109 166.496 37.6055C166.66 37.5117 166.836 37.4648 167.023 37.4648C167.246 37.4648 167.434 37.5762 167.586 37.7988C167.727 38.0215 167.879 38.2617 168.043 38.5195C168.207 38.7891 168.406 39.0352 168.641 39.2578C168.875 39.4805 169.197 39.5918 169.607 39.5918C170.135 39.5918 170.686 39.498 171.26 39.3105C171.834 39.1348 172.408 38.877 172.982 38.5371C173.568 38.1973 174.148 37.7812 174.723 37.2891C175.309 36.8086 175.883 36.2695 176.445 35.6719C176.117 34.4883 175.736 33.1992 175.303 31.8047C174.881 30.3984 174.43 28.9863 173.949 27.5684C173.48 26.1504 172.994 24.7852 172.49 23.4727C171.998 22.1484 171.512 20.9766 171.031 19.957C170.562 18.9375 170.105 18.123 169.66 17.5137C169.227 16.8926 168.84 16.582 168.5 16.582C168.277 16.582 168.107 16.6172 167.99 16.6875C167.861 16.7578 167.715 16.8574 167.551 16.9863L167.199 16.5469C167.434 16.3477 167.68 16.1426 167.938 15.9316C168.195 15.7207 168.5 15.5273 168.852 15.3516C169.203 15.1758 169.613 15.0352 170.082 14.9297C170.551 14.8125 171.113 14.7539 171.77 14.7539C172.484 14.7539 173.146 14.918 173.756 15.2461C174.377 15.5625 174.939 16.1543 175.443 17.0215C175.807 17.666 176.182 18.4395 176.568 19.3418C176.967 20.2441 177.365 21.252 177.764 22.3652C178.162 23.4785 178.561 24.6855 178.959 25.9863C179.369 27.2754 179.779 28.6289 180.189 30.0469C180.916 28.5234 181.502 26.9121 181.947 25.2129C182.393 23.502 182.615 21.7441 182.615 19.9395C182.615 19.2949 182.574 18.7441 182.492 18.2871C182.41 17.8301 182.316 17.4434 182.211 17.127C182.105 16.7988 182.012 16.5234 181.93 16.3008C181.848 16.0664 181.807 15.8613 181.807 15.6855C181.807 15.5098 181.877 15.3633 182.018 15.2461C182.158 15.1172 182.328 15.0176 182.527 14.9473C182.727 14.877 182.926 14.8301 183.125 14.8066C183.336 14.7715 183.512 14.7539 183.652 14.7539C183.969 14.7539 184.209 14.8184 184.373 14.9473C184.549 15.0762 184.678 15.2637 184.76 15.5098C184.842 15.7441 184.889 16.0312 184.9 16.3711C184.912 16.7109 184.918 17.0918 184.918 17.5137ZM195.764 23.8945C195.764 23.6016 195.67 23.3789 195.482 23.2266C195.295 23.0742 195.055 22.998 194.762 22.998C194.352 22.998 193.959 23.0918 193.584 23.2793C193.221 23.4668 192.898 23.7422 192.617 24.1055C192.336 24.4688 192.113 24.9199 191.949 25.459C191.785 25.9863 191.703 26.6016 191.703 27.3047C191.703 27.9844 191.75 28.5469 191.844 28.9922C191.949 29.4375 192.084 29.7949 192.248 30.0645C192.424 30.3223 192.623 30.5039 192.846 30.6094C193.068 30.7148 193.303 30.7676 193.549 30.7676C193.854 30.7676 194.141 30.6914 194.41 30.5391C194.68 30.375 194.914 30.1699 195.113 29.9238C195.312 29.6777 195.471 29.4023 195.588 29.0977C195.705 28.793 195.764 28.4883 195.764 28.1836V23.8945ZM192.969 16.1953C192.57 16.1953 192.201 16.2422 191.861 16.3359C191.521 16.4297 191.229 16.5469 190.982 16.6875C190.736 16.8281 190.543 16.9863 190.402 17.1621C190.262 17.3262 190.191 17.4844 190.191 17.6367C190.191 17.8125 190.279 17.9414 190.455 18.0234C190.643 18.0938 190.848 18.1816 191.07 18.2871C191.293 18.3809 191.492 18.5215 191.668 18.709C191.855 18.8848 191.949 19.1602 191.949 19.5352C191.949 19.7812 191.896 20.0098 191.791 20.2207C191.697 20.4199 191.562 20.6016 191.387 20.7656C191.223 20.918 191.023 21.041 190.789 21.1348C190.566 21.2168 190.332 21.2578 190.086 21.2578C189.43 21.2578 188.896 21.0352 188.486 20.5898C188.088 20.1445 187.889 19.5527 187.889 18.8145C187.889 18.0996 188.076 17.4902 188.451 16.9863C188.826 16.4707 189.312 16.0488 189.91 15.7207C190.52 15.3926 191.205 15.1523 191.967 15C192.729 14.8359 193.49 14.7539 194.252 14.7539C195.166 14.7539 196.039 14.8535 196.871 15.0527C197.703 15.252 198.436 15.5684 199.068 16.002C199.713 16.4355 200.223 16.9863 200.598 17.6543C200.984 18.3223 201.178 19.1309 201.178 20.0801V30.0117C201.178 30.1172 201.184 30.2344 201.195 30.3633C201.207 30.4922 201.236 30.6094 201.283 30.7148C201.33 30.8203 201.4 30.9082 201.494 30.9785C201.588 31.0488 201.723 31.084 201.898 31.084C202.109 31.084 202.303 31.0078 202.479 30.8555C202.666 30.6914 202.83 30.5273 202.971 30.3633L203.41 30.7324C203.234 30.9785 203.023 31.248 202.777 31.541C202.531 31.834 202.232 32.1094 201.881 32.3672C201.529 32.625 201.119 32.8418 200.65 33.0176C200.182 33.1934 199.648 33.2812 199.051 33.2812C198.312 33.2812 197.656 33.0645 197.082 32.6309C196.508 32.1855 196.133 31.5059 195.957 30.5918C195.582 31.0957 195.189 31.5176 194.779 31.8574C194.381 32.1973 193.971 32.4727 193.549 32.6836C193.127 32.8945 192.699 33.0469 192.266 33.1406C191.844 33.2344 191.416 33.2812 190.982 33.2812C190.42 33.2812 189.875 33.1934 189.348 33.0176C188.82 32.8418 188.346 32.5664 187.924 32.1914C187.514 31.8047 187.18 31.3066 186.922 30.6973C186.676 30.0879 186.553 29.3438 186.553 28.4648C186.553 27.3984 186.764 26.5254 187.186 25.8457C187.607 25.166 188.158 24.5977 188.838 24.1406C189.529 23.6719 190.309 23.2734 191.176 22.9453C192.055 22.6172 192.951 22.2715 193.865 21.9082C194.545 21.6387 195.037 21.2402 195.342 20.7129C195.658 20.1738 195.816 19.623 195.816 19.0605C195.816 18.1934 195.559 17.502 195.043 16.9863C194.539 16.459 193.848 16.1953 192.969 16.1953ZM215.539 23.4551C215.539 23.3262 215.539 23.0684 215.539 22.6816C215.539 22.2832 215.527 21.832 215.504 21.3281C215.48 20.8125 215.439 20.2676 215.381 19.6934C215.322 19.1191 215.229 18.5859 215.1 18.0938C214.818 17.7305 214.502 17.4082 214.15 17.127C213.811 16.834 213.371 16.6875 212.832 16.6875C211.918 16.6875 211.244 17.2852 210.811 18.4805C210.389 19.6758 210.178 21.5273 210.178 24.0352C210.178 25.1367 210.225 26.1445 210.318 27.0586C210.424 27.9727 210.576 28.7578 210.775 29.4141C210.986 30.0703 211.25 30.5801 211.566 30.9434C211.895 31.3066 212.281 31.4883 212.727 31.4883C214.602 31.4883 215.539 28.8105 215.539 23.4551ZM215.328 15.7207C215.105 14.5488 214.795 13.459 214.396 12.4512C213.998 11.4316 213.518 10.5527 212.955 9.81445C212.404 9.07617 211.771 8.49609 211.057 8.07422C210.354 7.65234 209.592 7.44141 208.771 7.44141C208.303 7.44141 207.875 7.5 207.488 7.61719C207.113 7.73438 206.785 7.875 206.504 8.03906C206.223 8.19141 205.988 8.34375 205.801 8.49609C205.625 8.63672 205.496 8.74219 205.414 8.8125L204.957 8.19727C205.238 7.83398 205.578 7.49414 205.977 7.17773C206.387 6.86133 206.832 6.5918 207.312 6.36914C207.793 6.14648 208.297 5.9707 208.824 5.8418C209.363 5.71289 209.896 5.64844 210.424 5.64844C212.158 5.64844 213.682 6.0293 214.994 6.79102C216.307 7.54102 217.402 8.60742 218.281 9.99023C219.16 11.373 219.822 13.043 220.268 15C220.713 16.957 220.936 19.1309 220.936 21.5215C220.936 23.4551 220.736 25.1543 220.338 26.6191C219.951 28.084 219.395 29.3145 218.668 30.3105C217.941 31.2949 217.057 32.0391 216.014 32.543C214.982 33.0352 213.816 33.2812 212.516 33.2812C211.613 33.2812 210.693 33.123 209.756 32.8066C208.83 32.4785 207.986 31.9512 207.225 31.2246C206.475 30.498 205.859 29.5488 205.379 28.377C204.898 27.1934 204.658 25.7461 204.658 24.0352C204.658 22.5586 204.863 21.2461 205.273 20.0977C205.695 18.9492 206.258 17.9824 206.961 17.1973C207.664 16.4004 208.479 15.7969 209.404 15.3867C210.33 14.9648 211.309 14.7539 212.34 14.7539C212.738 14.7539 213.096 14.7891 213.412 14.8594C213.729 14.918 214.004 14.9941 214.238 15.0879C214.473 15.1816 214.678 15.2871 214.854 15.4043C215.029 15.5098 215.188 15.6152 215.328 15.7207Z" fill="#FED136"/>
</svg>
